<svg 
  viewBox="0 0 20 20" 
  fill="currentColor" 
  width="20" 
  height="20" 
  aria-hidden="true" 
  xmlns="http://www.w3.org/2000/svg"
>
  <path 
    fill="currentColor"
    fill-rule="evenodd" 
    clip-rule="evenodd"
    d="M10 2.05c.414 0 .75.336.75.75v.81c1.305.147 2.53.732 3.467 1.67 1.093 1.093 1.707 2.575 1.707 4.121 0 2.339.25 3.653.473 4.356.111.35.213.541.268.629.02.03.033.048.04.057.214.202.291.513.192.794-.105.3-.388.501-.706.501h-3.236a1.86 1.86 0 0 1-.03.196c-.179.61-.55 1.146-1.059 1.527-.509.381-1.127.587-1.763.587-.635 0-1.253-.206-1.762-.587a2.747 2.747 0 0 1-1.059-1.527 1.86 1.86 0 0 1-.03-.196H4c-.287 0-.548-.164-.674-.422a.73.73 0 0 1 .074-.778c.002-.003.006-.008.011-.016a1.09 1.09 0 0 0 .078-.138c.073-.146.184-.4.299-.79.23-.78.477-2.104.477-4.19 0-1.546.615-3.028 1.708-4.121A6.921 6.921 0 0 1 9.25 3.635v-.835c0-.414.336-.75.75-.75Zm-1.193 13.69c.1.206.248.386.432.524.249.187.552.288.863.288.311 0 .613-.101.863-.288.184-.138.332-.318.432-.524H8.807ZM7.034 6.341c.812-.812 1.913-1.268 3.06-1.268 1.148 0 2.249.456 3.06 1.268.812.812 1.268 1.913 1.268 3.061 0 2.433.258 3.912.543 4.809H5.158c.023-.07.046-.144.069-.222.278-.941.538-2.411.538-4.614 0-1.148.456-2.249 1.269-3.06Z"
  />
</svg>
